<?xml version="1.0" encoding="UTF-8" standalone="no"?>
<svg
   width="16"
   height="16"
   version="1.1"
   id="svg1"
   sodipodi:docname="character.svg"
   inkscape:version="1.4.2 (ebf0e940d0, 2025-05-08)"
   xmlns:inkscape="http://www.inkscape.org/namespaces/inkscape"
   xmlns:sodipodi="http://sodipodi.sourceforge.net/DTD/sodipodi-0.dtd"
   xmlns="http://www.w3.org/2000/svg"
   xmlns:svg="http://www.w3.org/2000/svg">
  <defs
     id="defs1">
    <linearGradient
       id="a"
       x2="0"
       y1="2"
       y2="14"
       gradientUnits="userSpaceOnUse"
       gradientTransform="translate(4)">
      <stop
         offset="0"
         stop-color="#ff8dbc"
         id="stop1" />
      <stop
         offset=".4"
         stop-color="#7260ff"
         id="stop2" />
      <stop
         offset=".6"
         stop-color="#7260ff"
         id="stop3" />
      <stop
         offset="1"
         stop-color="#74c9ff"
         id="stop4" />
    </linearGradient>
  </defs>
  <sodipodi:namedview
     id="namedview1"
     pagecolor="#505050"
     bordercolor="#ffffff"
     borderopacity="1"
     inkscape:showpageshadow="0"
     inkscape:pageopacity="0"
     inkscape:pagecheckerboard="1"
     inkscape:deskcolor="#505050"
     inkscape:zoom="14.854978"
     inkscape:cx="0.67317502"
     inkscape:cy="10.434213"
     inkscape:window-width="1346"
     inkscape:window-height="727"
     inkscape:window-x="0"
     inkscape:window-y="0"
     inkscape:window-maximized="0"
     inkscape:current-layer="svg1" />
  <path
     fill="#8da5f3"
     d="m 6.4922281,1 a 1,1 0 0 0 -1,1 v 3 a 1,1 0 0 0 1,1 h 1 v 0.99 a 1,1 0 0 0 -0.316,0.062 l -2.051,0.684 -0.684,-2.051 a 1.0000706,1.0000706 0 0 0 -1.898,0.631 l 1,3 a 1,1 0 0 0 1.265,0.633 l 1.684,-0.56 v 0.61 c 0,0.041 0.019,0.076 0.024,0.116 l -4.579,3.052 a 1.0001245,1.0001245 0 1 0 1.11,1.664 l 5.056,-3.37 1.495,2.986 a 1,1 0 0 0 1.2100009,0.502 l 3,-1 a 1,1 0 1 0 -0.632,-1.897 l -2.178,0.725 -0.975001,-1.951 A 0.981,0.981 0 0 0 10.492229,9.999 V 9 h 1.382999 l 0.722,1.448 a 1.0006409,1.0006409 0 1 0 1.790001,-0.895 l -1,-2 A 1,1 0 0 0 12.492229,7 H 9.4922281 V 6 h 1.0000009 a 1,1 0 0 0 1,-1 V 2 a 1,1 0 0 0 -1,-1 z m 0,2 h 1 v 2 h -1 z"
     id="path1"
     style="fill:#20c997" />
</svg>
