<?xml version="1.0" encoding="UTF-8" standalone="no"?>
<svg
   width="16"
   height="16"
   version="1.1"
   id="svg1"
   sodipodi:docname="delay_event.svg"
   inkscape:version="1.4.2 (ebf0e940d0, 2025-05-08)"
   xmlns:inkscape="http://www.inkscape.org/namespaces/inkscape"
   xmlns:sodipodi="http://sodipodi.sourceforge.net/DTD/sodipodi-0.dtd"
   xmlns="http://www.w3.org/2000/svg"
   xmlns:svg="http://www.w3.org/2000/svg">
  <defs
     id="defs1" />
  <sodipodi:namedview
     id="namedview1"
     pagecolor="#505050"
     bordercolor="#ffffff"
     borderopacity="1"
     inkscape:showpageshadow="0"
     inkscape:pageopacity="0"
     inkscape:pagecheckerboard="1"
     inkscape:deskcolor="#505050"
     inkscape:zoom="25.715264"
     inkscape:cx="5.1720255"
     inkscape:cy="9.488528"
     inkscape:window-width="1346"
     inkscape:window-height="727"
     inkscape:window-x="0"
     inkscape:window-y="0"
     inkscape:window-maximized="0"
     inkscape:current-layer="svg1" />
  <path
     fill="none"
     stroke="#8da5f3"
     stroke-linejoin="round"
     stroke-width="2.28571"
     d="M 14.857145,14.857148 H 1.1428572 V 1.1428572 H 14.857145 Z"
     id="path1"
     style="stroke:#dd5498;stroke-width:2;stroke-dasharray:none" />
  <path
     fill="#e0e0e0"
     d="m 4.8110802,3.5943837 a 0.62779194,0.62779194 0 0 0 -0.6277919,0.627792 c 0,0.9416879 0.6070748,1.6479538 1.1758543,2.2977185 C 5.8362645,7.0660732 6.248096,7.5513563 6.5362525,7.9889273 6.248096,8.4264983 5.8368922,8.913037 5.3591426,9.4592163 4.7903631,10.10898 4.1832883,10.813991 4.1832883,11.755679 a 0.62779194,0.62779194 0 0 0 0.6277919,0.627792 H 11.089 a 0.62779194,0.62779194 0 0 0 0.627792,-0.627792 c 0,-0.941688 -0.607075,-1.646699 -1.175855,-2.2964627 C 10.063815,8.913037 9.6519839,8.4264983 9.3638269,7.9889273 9.6519839,7.5513563 10.063188,7.0660732 10.540937,6.5198942 11.109717,5.8701295 11.716792,5.1638636 11.716792,4.2221757 A 0.62779194,0.62779194 0 0 0 11.089,3.5943837 Z M 10.092066,4.8499676 C 9.9426519,5.1261961 9.9005899,5.3459232 9.5967379,5.6924644 9.0668819,6.2976558 8.4051891,6.9304701 8.0159581,7.7076765 A 0.62779194,0.62779194 0 0 0 7.9500399,7.9889273 0.62779194,0.62779194 0 0 0 7.883494,7.7083043 C 7.4948907,6.9304701 6.833198,6.2976558 6.3033417,5.6924644 5.9994904,5.3452955 5.9574283,5.1268239 5.807386,4.8499676 Z"
     id="path1-2"
     style="stroke-width:0.627792" />
</svg>
